<?xml version="1.0" encoding="UTF-8"?>
<svg id="Camada_1" xmlns="http://www.w3.org/2000/svg" version="1.1" xmlns:xlink="http://www.w3.org/1999/xlink" viewBox="0 0 200.62 51.75">
  <!-- Generator: Adobe Illustrator 29.6.1, SVG Export Plug-In . SVG Version: 2.1.1 Build 9)  -->
  <defs>
    <style>
      .st0 {
        fill: #1e3345;
      }

      .st1 {
        fill: #a6b0b5;
      }

      .st2 {
        fill: #0176ad;
      }

      .st3 {
        fill: none;
      }

      .st4 {
        isolation: isolate;
      }

      .st5 {
        clip-path: url(#clippath);
      }
    </style>
    <clipPath id="clippath">
      <rect class="st3" width="200.62" height="51.75"/>
    </clipPath>
  </defs>
  <g class="st5">
    <g id="Group_7588">
      <g id="Group_7589">
        <path id="Path_101322" class="st1" d="M.22,10.42H.22c0-1.61,1.31-2.92,2.92-2.92h24.46v5.83H3.14c-1.61,0-2.92-1.31-2.92-2.92,0,0,0,0,0,0"/>
        <path id="Path_101324" class="st1" d="M9.17,26.13h0c-.08-1.52,1.08-2.82,2.6-2.92h15.41v5.83h-15.4c-1.52-.09-2.68-1.4-2.6-2.92"/>
        <path id="Path_101326" class="st1" d="M6.46,18.05h0c-.13-1.47.94-2.76,2.41-2.92h18.32v5.83H8.87c-1.46-.15-2.53-1.45-2.41-2.92"/>
        <path id="Path_101328" class="st1" d="M2.48,33.76h0c.08-1.69,1.51-2.99,3.2-2.92h21.9v5.83H5.68c-1.69.07-3.12-1.23-3.2-2.92"/>
        <path id="Path_101330" class="st1" d="M12.71,41.39h0c0-1.36.75-2.47,1.68-2.47h13.28v4.94h-13.28c-.93,0-1.68-1.1-1.68-2.47"/>
        <path id="Path_101331" class="st2" d="M29.39,26.01c-.45-.78-.17-1.78.61-2.22.68-.39,1.54-.24,2.05.36l.05.06.08.02,3.85.84h0l-3.74.95-.08.02-.05.07c-.51.75-1.52.94-2.27.43-.2-.14-.37-.32-.49-.53"/>
        <path id="Path_101332" class="st2" d="M29.59,25.91c.39.67,1.26.9,1.93.5.18-.11.34-.25.45-.42l.1-.14,2.99-.76-3.08-.67-.1-.12c-.49-.6-1.38-.68-1.98-.19-.53.44-.67,1.2-.32,1.8M29.2,26.13c-.52-.88-.22-2.02.67-2.54.78-.46,1.78-.28,2.36.41l3.85.84c.21.05.27.38.07.42l-3.8.96c-.58.85-1.73,1.07-2.58.49-.23-.16-.42-.36-.56-.6"/>
        <path id="Path_101333" class="st2" d="M30.69,44.6c-.44,0-.88-.01-1.32-.03v-6.76c.09.04.19.1.3.15,2.92,1.37,6.29,1.37,9.21,0,1.43-.68,2.71-1.63,3.76-2.81,1.1-1.22,1.96-2.63,2.53-4.17,1.24-3.29,1.24-6.91,0-10.2-.58-1.53-1.44-2.95-2.53-4.17-1.05-1.18-2.33-2.13-3.76-2.81-2.92-1.38-6.29-1.38-9.21,0-.1.05-.2.1-.3.15v-6.76c.44-.02.88-.03,1.32-.03,2.9,0,5.77.49,8.5,1.47,2.54.91,4.89,2.27,6.94,4.01,1.95,1.65,3.54,3.67,4.67,5.95,2.29,4.59,2.29,9.99,0,14.58-1.14,2.28-2.73,4.31-4.68,5.95-2.05,1.75-4.4,3.11-6.93,4.02-2.73.98-5.6,1.48-8.5,1.47"/>
      </g>
      <g id="NetChart" class="st4">
        <g class="st4">
          <path class="st0" d="M84.28,12.05l-3.4,27.57h-2.85c-.43,0-.78-.07-1.04-.22-.27-.15-.52-.38-.76-.71l-10.2-18.01c-.03.33-.05.65-.09.96s-.06.6-.09.86l-2.03,17.12h-4.86l3.4-27.57h2.89c.24,0,.44,0,.61.03.16.02.31.06.43.11.12.06.23.14.33.26.1.11.21.27.32.46l10.26,18.03c.02-.41.06-.8.09-1.18s.08-.73.11-1.06l2.01-16.64h4.86Z"/>
        </g>
        <g class="st4">
          <path class="st0" d="M87.95,31.59c0,2.9,1.22,4.35,3.67,4.35.81,0,1.47-.1,1.99-.31.51-.21.95-.44,1.32-.68.37-.25.71-.47,1.02-.68.31-.21.67-.31,1.07-.31.18,0,.35.04.5.12.16.08.3.19.43.33l1.33,1.6c-.68.68-1.35,1.27-2,1.76-.65.49-1.32.89-2.01,1.22s-1.42.56-2.19.71c-.76.15-1.6.23-2.51.23-1.15,0-2.2-.2-3.15-.59-.95-.39-1.76-.95-2.44-1.66-.68-.71-1.2-1.58-1.58-2.58-.37-1.01-.56-2.13-.56-3.37,0-1.04.11-2.05.34-3.04s.56-1.93.99-2.81c.43-.89.95-1.7,1.57-2.44.61-.74,1.31-1.38,2.1-1.92.79-.54,1.64-.96,2.57-1.26.93-.3,1.92-.46,2.97-.46s1.93.15,2.73.45c.79.3,1.45.68,1.99,1.16.53.47.93,1,1.21,1.59.27.58.41,1.17.41,1.75,0,.87-.18,1.68-.53,2.41s-.98,1.39-1.86,1.97c-.89.58-2.09,1.07-3.61,1.48-1.52.41-3.44.73-5.76.96v.06ZM93.08,23.36c-.56,0-1.08.12-1.58.35-.49.23-.94.56-1.34.99-.4.42-.75.93-1.05,1.53-.3.59-.55,1.26-.74,1.99,1.41-.2,2.54-.42,3.41-.66s1.54-.49,2.01-.76c.47-.27.79-.57.95-.88.16-.32.24-.66.24-1.03,0-.18-.04-.36-.11-.54s-.19-.35-.34-.49c-.15-.15-.35-.27-.59-.36-.24-.1-.53-.14-.85-.14Z"/>
        </g>
        <g class="st4">
          <path class="st0" d="M100.57,35.52v-.31c0-.12,0-.3.03-.53s.05-.54.09-.93c.04-.39.1-.89.18-1.51l1.04-8.44h-1.71c-.25,0-.46-.09-.62-.27s-.21-.44-.16-.8l.25-2.05,2.96-.57,1.61-5.07c.18-.57.56-.86,1.16-.86h2.81l-.74,5.97h4.58l-.44,3.65h-4.58l-1.01,8.15c-.06.52-.11.93-.15,1.23-.04.3-.07.54-.09.7-.02.17-.03.28-.03.33v.12c0,.44.1.79.3,1.05.2.26.51.39.91.39.23,0,.42-.03.59-.09.17-.06.31-.12.43-.19.12-.07.23-.13.33-.19.1-.06.21-.08.32-.08.17,0,.29.04.36.1s.15.19.23.35l1.14,2.51c-.74.57-1.54,1-2.41,1.29s-1.75.44-2.64.44c-1.44,0-2.59-.39-3.43-1.17-.84-.78-1.29-1.86-1.34-3.24Z"/>
        </g>
        <g class="st4">
          <path class="st0" d="M122.72,35.33c.74,0,1.38-.06,1.92-.17.54-.11,1.02-.26,1.42-.44.4-.18.74-.37,1.02-.57.28-.2.53-.39.75-.57.22-.18.42-.32.59-.44.17-.11.35-.17.54-.17.18,0,.33.03.45.1s.21.13.28.21l1.92,2.36c-1.19,1.39-2.6,2.46-4.24,3.19-1.63.73-3.5,1.1-5.59,1.1-1.71,0-3.23-.3-4.57-.91-1.34-.61-2.46-1.45-3.37-2.52-.91-1.07-1.61-2.34-2.08-3.8-.48-1.46-.71-3.06-.71-4.78,0-1.58.17-3.08.52-4.49s.84-2.72,1.47-3.91c.63-1.2,1.4-2.28,2.29-3.24.89-.96,1.89-1.78,2.98-2.44,1.1-.66,2.27-1.18,3.52-1.54,1.25-.36,2.57-.54,3.93-.54,1.01,0,1.94.09,2.77.29.84.19,1.6.45,2.28.79.68.34,1.29.74,1.83,1.22.54.48,1.02,1,1.43,1.57l-1.92,2.26c-.14.17-.3.31-.48.44-.18.13-.42.19-.71.19s-.56-.11-.82-.33c-.25-.22-.56-.46-.93-.72s-.84-.5-1.42-.72-1.35-.33-2.3-.33c-1.25,0-2.42.26-3.5.78-1.08.52-2.01,1.26-2.8,2.21-.79.96-1.41,2.12-1.86,3.49-.45,1.37-.67,2.9-.67,4.6,0,1.24.15,2.35.46,3.32s.73,1.79,1.27,2.47c.54.68,1.18,1.19,1.92,1.55.73.35,1.54.53,2.41.53Z"/>
        </g>
        <g class="st4">
          <path class="st0" d="M138.66,23c.92-1.11,1.92-1.94,2.97-2.47,1.06-.53,2.14-.8,3.26-.8.82,0,1.57.16,2.23.49.67.33,1.22.81,1.65,1.44.44.63.74,1.41.92,2.34.18.92.19,1.98.04,3.17l-1.48,12.45h-5.23l1.46-12.45c.15-1.18.09-2.02-.17-2.52-.27-.5-.75-.75-1.44-.75-.44,0-.9.13-1.38.38-.47.25-.94.62-1.39,1.09-.45.47-.86,1.04-1.24,1.71-.38.67-.7,1.41-.97,2.23l-1.25,10.3h-5.24l3.44-28.33h5.24l-1.42,11.7Z"/>
          <path class="st0" d="M161.25,35.94c-.84,1.23-1.77,2.2-2.8,2.91-1.03.71-2.17,1.06-3.41,1.06-.72,0-1.41-.14-2.06-.43s-1.23-.72-1.72-1.29-.88-1.3-1.17-2.18c-.29-.88-.43-1.91-.43-3.09s.15-2.32.44-3.43c.29-1.11.71-2.15,1.25-3.12.54-.98,1.21-1.87,1.99-2.69.78-.82,1.65-1.52,2.6-2.1s2-1.04,3.12-1.36c1.12-.32,2.3-.48,3.54-.48.91,0,1.82.07,2.74.2s1.81.36,2.7.69l-2.36,19h-2.79c-.33,0-.6-.04-.83-.13s-.4-.21-.53-.36-.22-.33-.28-.53c-.05-.2-.08-.42-.08-.67l.08-1.99ZM162.54,23.42c-.11-.01-.23-.02-.34-.02h-.34c-1.01,0-1.94.23-2.79.68s-1.58,1.08-2.19,1.86c-.62.79-1.1,1.7-1.44,2.74-.35,1.04-.52,2.13-.52,3.29,0,1.32.2,2.27.61,2.86s.94.88,1.6.88c.47,0,.93-.17,1.4-.51.46-.34.9-.81,1.3-1.41.4-.6.78-1.29,1.12-2.1.34-.8.64-1.66.89-2.57l.72-5.7Z"/>
        </g>
        <g class="st4">
          <path class="st0" d="M174.04,24.4c.49-.91,1.02-1.69,1.57-2.34.55-.65,1.12-1.15,1.72-1.51s1.2-.57,1.82-.63c.62-.06,1.25.05,1.88.33l-.95,4.92c-.75-.32-1.45-.45-2.1-.4s-1.25.3-1.8.76-1.05,1.12-1.49,2-.83,1.98-1.16,3.31l-1.06,8.78h-5.15l2.38-19.61h2.7c.54,0,.97.13,1.27.4s.46.69.46,1.27l-.08,2.72Z"/>
        </g>
        <g class="st4">
          <path class="st0" d="M180.27,35.52v-.31c0-.12,0-.3.03-.53.02-.23.05-.54.09-.93.04-.39.1-.89.18-1.51l1.04-8.44h-1.71c-.25,0-.46-.09-.62-.27s-.21-.44-.16-.8l.25-2.05,2.96-.57,1.62-5.07c.18-.57.56-.86,1.16-.86h2.81l-.74,5.97h4.58l-.44,3.65h-4.58l-1.01,8.15c-.06.52-.11.93-.15,1.23-.04.3-.07.54-.08.7-.02.17-.03.28-.03.33v.12c0,.44.1.79.3,1.05.2.26.51.39.91.39.23,0,.42-.03.59-.09.16-.06.31-.12.43-.19.12-.07.23-.13.33-.19.1-.06.21-.08.32-.08.16,0,.28.04.36.1s.15.19.23.35l1.14,2.51c-.73.57-1.54,1-2.41,1.29s-1.75.44-2.64.44c-1.44,0-2.59-.39-3.43-1.17-.84-.78-1.29-1.86-1.34-3.24Z"/>
        </g>
      </g>
    </g>
  </g>
</svg>